<?xml version="1.0" standalone="no"?>
<!DOCTYPE svg PUBLIC "-//W3C//DTD SVG 20010904//EN"
 "http://www.w3.org/TR/2001/REC-SVG-20010904/DTD/svg10.dtd">
<svg version="1.0" xmlns="http://www.w3.org/2000/svg"
 width="300.000000pt" height="300.000000pt" viewBox="0 0 300.000000 300.000000"
 preserveAspectRatio="xMidYMid meet">

<g transform="translate(0.000000,300.000000) scale(0.100000,-0.100000)"
fill="#000000" stroke="none">
<path d="M1400 2770 c-130 -10 -218 -34 -330 -87 -179 -86 -287 -231 -312
-415 -32 -239 65 -425 278 -535 111 -57 187 -83 442 -147 249 -63 336 -92 435
-144 71 -37 148 -106 175 -157 23 -45 42 -124 41 -175 l0 -45 -28 60 c-50 108
-153 186 -328 249 -40 14 -172 51 -295 82 -255 64 -331 90 -443 147 -136 71
-222 171 -266 307 l-17 55 -1 -55 c-3 -203 106 -372 300 -467 105 -52 161 -70
424 -139 367 -96 455 -132 552 -229 82 -82 86 -101 37 -173 -105 -152 -328
-232 -614 -218 -247 11 -457 85 -623 218 -33 26 -63 48 -66 48 -3 0 -21 -25
-38 -56 l-33 -56 0 -143 0 -142 43 -40 c124 -115 319 -199 547 -239 119 -20
399 -15 500 10 259 65 427 202 484 395 20 67 33 223 17 201 -6 -8 -11 -22 -11
-30 0 -9 -16 -48 -35 -88 -62 -129 -167 -220 -330 -285 -133 -53 -204 -68
-361 -74 -277 -11 -528 65 -722 218 -59 47 -62 51 -62 94 0 25 2 45 5 45 2 0
30 -16 62 -37 234 -149 570 -214 875 -168 401 60 627 315 578 651 -24 168
-110 282 -275 366 -106 54 -218 91 -462 152 -370 93 -508 161 -580 283 l-26
45 21 43 c61 126 205 213 405 245 116 19 318 8 439 -23 97 -25 242 -87 297
-126 16 -12 32 -21 35 -21 12 0 56 113 61 158 3 26 2 96 -2 157 l-8 110 -105
52 c-205 102 -428 143 -680 123z m230 -140 c168 -18 343 -75 461 -151 49 -31
49 -31 49 -86 0 -30 -3 -53 -7 -51 -228 114 -406 153 -661 145 -221 -7 -327
-39 -431 -133 -55 -49 -83 -90 -113 -162 l-19 -47 4 70 c14 230 197 383 494
414 110 12 117 12 223 1z"/>
</g>
</svg>
