<?xml version="1.0" standalone="no"?>
<!DOCTYPE svg PUBLIC "-//W3C//DTD SVG 20010904//EN"
 "http://www.w3.org/TR/2001/REC-SVG-20010904/DTD/svg10.dtd">
<svg version="1.0" xmlns="http://www.w3.org/2000/svg"
 width="300.000000pt" height="300.000000pt" viewBox="0 0 300.000000 300.000000"
 preserveAspectRatio="xMidYMid meet">

<g transform="translate(0.000000,300.000000) scale(0.100000,-0.100000)"
fill="#000000" stroke="none">
<path d="M1370 2770 c-386 -49 -620 -266 -620 -577 0 -249 130 -412 411 -516
52 -20 194 -61 316 -91 246 -62 336 -92 436 -144 71 -37 148 -106 175 -157 23
-45 42 -124 41 -175 l0 -45 -29 62 c-51 112 -152 188 -330 248 -41 14 -174 51
-295 81 -343 87 -473 143 -581 249 -67 66 -98 119 -125 210 l-18 60 0 -61 c-3
-207 91 -363 275 -461 102 -54 209 -89 474 -157 341 -87 428 -124 527 -222 82
-81 86 -100 37 -172 -75 -108 -204 -177 -386 -207 -307 -50 -664 40 -863 217
l-54 48 -35 -60 -36 -61 0 -144 0 -143 55 -49 c116 -103 324 -194 525 -229
148 -25 423 -15 549 20 299 84 473 288 470 551 l-1 60 -17 -55 c-69 -216 -240
-355 -521 -425 -101 -25 -336 -31 -445 -11 -188 35 -357 107 -482 207 -60 47
-63 51 -63 94 0 25 3 45 6 45 3 0 26 -14 50 -31 120 -82 315 -152 503 -179
129 -19 362 -8 483 23 87 23 207 74 261 112 86 61 176 181 203 273 75 258 -28
503 -260 615 -122 59 -190 82 -424 141 -121 31 -255 68 -298 82 -163 55 -270
125 -320 210 -24 40 -25 47 -13 76 20 48 84 123 134 158 205 141 612 146 900
11 47 -22 98 -49 114 -60 16 -12 32 -21 36 -21 3 0 19 29 36 65 28 62 29 71
29 205 l0 140 -42 27 c-110 69 -244 120 -391 148 -98 19 -306 27 -397 15z
m258 -140 c169 -18 334 -72 465 -153 47 -29 47 -29 47 -84 0 -30 -3 -53 -7
-51 -220 110 -378 149 -608 149 -242 0 -378 -38 -481 -133 -57 -53 -81 -87
-111 -157 l-24 -56 4 70 c15 230 197 383 494 414 110 12 117 12 221 1z"/>
</g>
</svg>
