<?xml version="1.0" standalone="no"?>
<!DOCTYPE svg PUBLIC "-//W3C//DTD SVG 20010904//EN"
 "http://www.w3.org/TR/2001/REC-SVG-20010904/DTD/svg10.dtd">
<svg version="1.0" xmlns="http://www.w3.org/2000/svg"
 width="421.000000pt" height="421.000000pt" viewBox="0 0 421.000000 421.000000"
 preserveAspectRatio="xMidYMid meet">

<g transform="translate(0.000000,421.000000) scale(0.100000,-0.100000)"
fill="#000000" stroke="none">
<path d="M2031 3284 c0 -11 3 -14 6 -6 3 7 2 16 -1 19 -3 4 -6 -2 -5 -13z"/>
<path d="M2060 3280 c-8 -5 -10 -10 -5 -10 6 0 17 5 25 10 8 5 11 10 5 10 -5
0 -17 -5 -25 -10z"/>
<path d="M2316 3195 c9 -14 21 -25 27 -25 6 0 18 -7 28 -16 14 -13 16 -20 7
-34 -10 -15 -7 -25 15 -53 32 -43 28 -82 -9 -73 -20 5 -26 1 -38 -26 -13 -33
-10 -61 4 -38 12 19 46 7 42 -15 -5 -26 -3 -26 -45 -13 -20 6 -39 9 -41 7 -2
-2 -6 -20 -7 -39 -3 -26 0 -34 11 -32 11 3 11 0 1 -11 -6 -8 -10 -21 -9 -28 4
-18 -46 -14 -108 10 -25 10 -31 17 -28 37 3 27 -31 94 -48 94 -5 0 -6 -4 -3
-10 9 -15 -1 -12 -18 4 -7 8 -39 17 -70 21 -49 6 -56 5 -51 -8 4 -12 1 -14
-15 -10 -12 3 -21 10 -21 15 0 6 -6 8 -14 5 -9 -4 -17 1 -19 11 -3 9 -5 1 -6
-19 -1 -31 3 -38 24 -43 14 -4 25 -12 25 -19 0 -14 36 -40 63 -44 10 -2 29
-10 43 -20 19 -12 22 -18 12 -24 -10 -7 -10 -9 2 -9 13 0 13 -1 0 -10 -8 -5
-11 -10 -6 -10 6 0 0 -9 -12 -20 -12 -11 -27 -20 -35 -20 -7 0 -22 -7 -33 -15
-23 -17 -60 -19 -70 -4 -8 14 -53 -39 -54 -63 0 -10 -4 -18 -10 -18 -13 0 -33
-77 -24 -93 4 -6 4 -9 -1 -5 -14 13 -34 -26 -41 -81 -6 -44 -4 -57 15 -81 11
-16 21 -44 21 -63 0 -18 7 -42 16 -53 13 -16 15 -16 10 -1 -7 23 6 22 22 -3
11 -18 10 -20 -10 -20 -15 0 -19 -3 -11 -8 7 -4 14 -17 16 -27 2 -11 8 -31 14
-45 15 -37 4 -96 -23 -125 -13 -14 -24 -31 -25 -38 0 -7 -4 -3 -9 8 -5 11 -9
14 -9 6 -1 -11 -4 -11 -16 -1 -12 10 -20 7 -46 -14 -27 -23 -48 -31 -71 -27
-5 0 -8 -3 -8 -8 0 -5 -18 -7 -39 -5 -35 3 -40 1 -46 -24 -12 -46 -15 -122 -5
-122 6 0 10 -5 10 -11 0 -7 -10 -9 -25 -7 -21 4 -25 1 -25 -18 0 -13 5 -24 11
-24 5 0 7 -4 4 -10 -9 -14 -47 -12 -43 2 4 10 -25 48 -36 48 -2 0 -9 -20 -16
-44 -9 -32 -9 -57 -2 -92 6 -27 9 -50 8 -52 -2 -1 -15 2 -30 8 -15 5 -34 10
-42 10 -23 0 -56 -40 -51 -61 3 -10 0 -17 -5 -16 -6 1 -13 -4 -15 -10 -3 -7 0
-13 6 -13 16 0 13 -43 -4 -66 -14 -18 -15 -17 -10 11 4 21 -1 14 -16 -20 -12
-27 -22 -59 -24 -70 -1 -11 -3 -23 -4 -27 0 -5 -6 -8 -12 -8 -5 0 -7 5 -4 10
3 6 1 10 -5 10 -6 0 -10 -6 -9 -12 1 -7 0 -20 -3 -28 -22 -67 -26 -83 -21 -96
3 -8 0 -14 -6 -14 -6 0 -11 -8 -12 -17 0 -13 -3 -11 -10 7 -9 23 -11 23 -20 7
-6 -10 -14 -53 -18 -96 -5 -43 -12 -84 -17 -92 -6 -11 -12 -53 -15 -114 0 -5
2 -28 5 -50 11 -77 12 -90 3 -108 -5 -10 -15 -16 -22 -13 -8 3 -17 1 -19 -3
-3 -5 -28 -7 -55 -6 -28 0 -47 -3 -44 -7 6 -11 55 -32 66 -29 21 4 77 -24 77
-39 0 -9 4 -20 9 -26 5 -5 11 -18 14 -29 4 -16 5 -15 6 6 1 15 7 26 16 26 8 0
12 -4 9 -9 -10 -15 7 -30 21 -18 19 16 26 -2 16 -38 -5 -17 -6 -33 -3 -37 7
-7 8 -14 10 -89 2 -44 4 -48 23 -43 14 4 19 2 16 -7 -3 -8 6 -19 19 -27 17 -9
21 -15 12 -20 -6 -4 -20 -3 -31 3 -30 16 -29 4 3 -37 16 -21 30 -45 30 -54 0
-13 2 -14 9 -2 5 8 7 20 4 27 -2 6 1 15 8 20 8 4 10 3 5 -4 -4 -7 0 -12 10
-12 10 0 14 -3 11 -6 -4 -4 0 -19 7 -33 28 -54 36 -94 24 -109 -10 -11 -8 -17
7 -28 13 -10 18 -25 17 -54 l-2 -40 713 0 c789 1 749 -4 562 65 -179 65 -206
82 -237 148 -16 32 -34 60 -41 63 -10 4 -11 21 -5 82 5 42 6 87 3 100 -3 13
-2 28 2 35 4 7 8 17 10 22 7 34 40 104 47 98 4 -4 4 1 0 11 -4 11 -3 17 2 14
5 -3 10 12 11 35 2 22 16 91 33 153 16 62 30 123 31 136 0 22 1 22 9 3 4 -11
6 -31 4 -45 -4 -20 -1 -18 13 10 21 42 31 50 60 50 40 0 96 -134 95 -227 -1
-54 46 -205 92 -293 19 -36 50 -106 70 -156 20 -50 60 -138 89 -195 l53 -104
167 -3 c154 -2 167 -1 167 15 0 10 -15 83 -34 163 -19 80 -37 165 -41 190 -8
53 -106 378 -140 465 -77 195 -117 334 -129 449 -4 33 -18 92 -31 131 -14 40
-41 146 -60 236 -39 189 -64 273 -109 373 -42 91 -86 138 -153 162 -29 10 -53
23 -53 27 0 20 42 215 55 252 14 43 4 145 -30 302 -9 39 -15 96 -14 126 2 51
-1 58 -47 118 -27 35 -68 83 -91 106 -42 43 -136 97 -147 86 -3 -4 -6 -1 -6 5
0 7 -5 12 -10 12 -6 0 -3 -11 6 -25z m122 -240 c6 -14 16 -25 22 -25 5 0 10
-7 10 -15 0 -8 5 -15 11 -15 6 0 8 -8 4 -19 -3 -11 -1 -22 5 -26 5 -3 10 -11
10 -18 0 -6 -11 3 -23 21 -13 17 -27 29 -30 25 -4 -3 -2 -12 4 -20 9 -10 8
-13 -4 -13 -8 0 -24 -3 -34 -6 -11 -4 -14 -3 -7 3 6 4 11 22 11 38 0 17 4 40
8 53 6 17 4 22 -9 22 -10 0 -14 5 -11 10 10 16 21 11 33 -15z m97 -146 c4 -12
2 -26 -4 -32 -8 -8 -11 -7 -11 5 0 11 -6 15 -20 11 -25 -7 -26 5 -2 23 24 18
30 17 37 -7z m-529 -114 c-8 -8 -27 -15 -43 -14 -28 0 -27 0 7 13 48 18 54 19
36 1z m-161 -135 c3 -5 1 -10 -4 -10 -6 0 -11 5 -11 10 0 6 2 10 4 10 3 0 8
-4 11 -10z m13 -268 c2 -7 -5 -12 -15 -11 -12 0 -14 2 -4 6 11 5 11 7 0 15
-12 8 -12 9 0 6 8 -3 17 -10 19 -16z m72 -92 c0 -5 -2 -10 -4 -10 -3 0 -8 5
-11 10 -3 6 -1 10 4 10 6 0 11 -4 11 -10z m40 -10 c0 -5 -2 -10 -4 -10 -3 0
-8 5 -11 10 -3 6 -1 10 4 10 6 0 11 -4 11 -10z m780 -292 c0 -24 -4 -49 -9
-57 -10 -16 -31 -6 -31 15 0 8 -6 14 -12 14 -9 0 -8 4 2 10 8 5 12 10 7 10
-10 0 23 50 34 50 5 0 9 -19 9 -42z m-194 -24 c5 -43 -7 -24 -20 31 -5 22 -4
27 4 19 6 -6 13 -28 16 -50z m-1006 -190 c0 -8 -4 -12 -10 -9 -5 3 -10 13 -10
21 0 8 5 12 10 9 6 -3 10 -13 10 -21z m119 -19 c4 -5 4 -23 0 -40 -6 -29 -7
-29 -8 -4 0 15 -3 39 -5 55 -2 16 -1 22 1 14 3 -8 8 -19 12 -25z m-52 -17 c-3
-8 -6 -5 -6 6 -1 11 2 17 5 13 3 -3 4 -12 1 -19z m8 -126 c-9 -9 -24 39 -18
55 6 14 9 11 14 -17 4 -19 6 -36 4 -38z m-23 -48 c18 -5 35 -50 24 -61 -9 -9
-43 25 -77 75 -37 55 -37 60 4 22 17 -16 40 -33 49 -36z m113 -13 c4 -17 4
-31 2 -31 -5 0 -37 93 -37 107 0 15 28 -46 35 -76z m-108 37 c-3 -8 -6 -5 -6
6 -1 11 2 17 5 13 3 -3 4 -12 1 -19z m1483 -686 c0 -8 8 -27 17 -43 13 -23 15
-31 5 -41 -9 -9 -12 -7 -12 9 0 12 -4 25 -10 28 -5 3 -10 17 -10 30 0 13 -4
27 -10 30 -5 3 -10 14 -10 23 0 13 2 13 15 -4 8 -10 15 -25 15 -32z m95 -319
c3 -27 17 -88 30 -138 13 -49 27 -115 31 -145 4 -30 10 -59 14 -65 14 -17 23
-85 12 -85 -14 0 -25 31 -23 64 2 15 -1 26 -6 23 -10 -7 -28 51 -43 138 -5 33
-15 80 -20 105 -6 25 -12 54 -14 65 -1 11 -8 30 -15 43 -13 24 -7 42 13 42 9
0 16 -18 21 -47z m-1625 7 c0 -5 -4 -10 -10 -10 -5 0 -10 5 -10 10 0 6 5 10
10 10 6 0 10 -4 10 -10z m-18 -342 c3 -35 10 -64 16 -66 7 -2 12 -10 12 -18 0
-25 -15 -15 -28 18 -7 18 -18 41 -23 50 -14 27 -11 78 5 78 10 0 15 -18 18
-62z"/>
<path d="M2435 2920 c3 -5 8 -10 11 -10 2 0 4 5 4 10 0 6 -5 10 -11 10 -5 0
-7 -4 -4 -10z"/>
<path d="M1722 3073 c2 -10 -4 -27 -14 -37 -12 -13 -15 -23 -8 -31 6 -7 8 -21
4 -31 -5 -18 -5 -18 6 -1 6 9 8 22 4 28 -4 8 1 9 16 4 15 -5 20 -4 16 4 -11
17 5 13 26 -6 12 -10 18 -12 18 -4 0 8 8 10 23 6 22 -7 22 -7 2 9 -17 14 -18
17 -5 27 12 8 9 9 -12 5 -20 -5 -33 -1 -47 13 -11 11 -17 22 -13 25 3 3 0 6
-7 6 -7 0 -11 -8 -9 -17z"/>
<path d="M1833 3023 c9 -2 14 -9 11 -15 -4 -7 -2 -8 5 -4 15 10 4 26 -17 25
-15 -1 -15 -2 1 -6z"/>
<path d="M1940 2720 c0 -5 7 -10 15 -10 8 0 15 5 15 10 0 6 -7 10 -15 10 -8 0
-15 -4 -15 -10z"/>
<path d="M1730 2633 c0 -12 5 -25 10 -28 13 -8 13 15 0 35 -8 12 -10 11 -10
-7z"/>
<path d="M1744 2573 c3 -10 8 -30 12 -45 3 -16 10 -28 15 -28 10 0 12 50 3 74
-9 22 -37 21 -30 -1z"/>
<path d="M1132 435 c0 -16 2 -22 5 -12 2 9 2 23 0 30 -3 6 -5 -1 -5 -18z"/>
<path d="M1148 386 c-25 -24 -34 -77 -15 -87 11 -7 14 -26 13 -79 -1 -38 2
-70 6 -70 4 0 8 -9 8 -20 0 -11 3 -20 8 -20 8 0 32 -71 32 -95 0 -11 11 -15
41 -15 38 0 41 2 34 23 -5 12 -9 44 -10 70 -2 26 -5 51 -9 54 -3 4 -6 14 -6
24 0 12 -6 16 -20 12 -17 -5 -20 0 -20 28 0 19 -3 45 -7 58 -4 18 -3 22 6 16
8 -5 7 3 -3 23 -9 17 -16 37 -16 45 0 7 -6 21 -13 31 -12 17 -15 17 -29 2z"/>
<path d="M1254 264 c6 -19 15 -34 20 -34 4 0 5 7 2 16 -3 9 -6 22 -6 29 0 7
-6 15 -13 18 -11 4 -11 -2 -3 -29z"/>
<path d="M1231 254 c0 -11 3 -14 6 -6 3 7 2 16 -1 19 -3 4 -6 -2 -5 -13z"/>
<path d="M1266 171 c-3 -5 1 -14 8 -20 12 -10 13 -8 9 8 -6 23 -9 25 -17 12z"/>
<path d="M1332 135 c20 -30 23 -32 26 -14 4 23 -14 49 -34 49 -10 0 -8 -9 8
-35z"/>
<path d="M1300 65 c0 -8 5 -15 10 -15 6 0 10 7 10 15 0 8 -4 15 -10 15 -5 0
-10 -7 -10 -15z"/>
<path d="M950 30 c0 -28 14 -31 106 -28 l79 3 -65 21 c-44 15 -71 19 -82 12
-12 -5 -18 -5 -18 2 0 5 -4 10 -10 10 -5 0 -10 -9 -10 -20z"/>
</g>
</svg>
