<?xml version="1.0" standalone="no"?>
<!DOCTYPE svg PUBLIC "-//W3C//DTD SVG 20010904//EN"
 "http://www.w3.org/TR/2001/REC-SVG-20010904/DTD/svg10.dtd">
<svg version="1.0" xmlns="http://www.w3.org/2000/svg"
 width="929.000000pt" height="719.000000pt" viewBox="0 0 929.000000 719.000000"
 preserveAspectRatio="xMidYMid meet">

<g transform="translate(0.000000,719.000000) scale(0.100000,-0.100000)"
fill="#000000" stroke="none">
<path d="M1404 4060 c-235 -75 -273 -361 -61 -464 28 -14 112 -41 186 -61 154
-41 195 -62 211 -109 34 -103 -107 -175 -257 -131 -60 18 -107 65 -117 119
l-7 36 -96 0 -95 0 7 -47 c10 -72 37 -123 89 -171 83 -76 195 -109 339 -99
186 12 295 89 328 233 18 78 -1 151 -56 212 -53 59 -99 80 -260 121 -191 48
-219 64 -219 127 0 67 74 111 169 101 90 -9 123 -36 149 -119 5 -16 19 -18
101 -18 l95 0 -6 43 c-14 88 -55 149 -131 194 -93 54 -255 69 -369 33z"/>
<path d="M2062 3713 l3 -348 28 -57 c54 -109 154 -166 309 -175 198 -12 337
54 400 192 22 49 23 60 26 393 l3 342 -100 0 -101 0 0 -322 c0 -288 -2 -327
-18 -357 -23 -47 -63 -73 -119 -80 -110 -14 -178 11 -218 80 -19 32 -20 55
-23 357 l-3 322 -95 0 -95 0 3 -347z"/>
<path d="M3010 3606 l0 -456 100 0 100 0 0 165 0 165 138 0 c207 0 287 33 348
142 26 48 29 62 29 148 0 106 -15 148 -77 209 -70 70 -94 75 -380 79 l-258 3
0 -455z m467 281 c40 -21 63 -63 63 -117 0 -103 -58 -139 -222 -140 l-108 0 0
141 0 141 118 -4 c84 -3 126 -9 149 -21z"/>
<path d="M3860 3605 l0 -455 345 0 345 0 0 85 0 85 -245 0 -245 0 0 110 0 110
220 0 220 0 0 80 0 80 -220 0 -220 0 0 100 0 100 240 0 240 0 0 80 0 80 -340
0 -340 0 0 -455z"/>
<path d="M4690 3605 l0 -455 100 0 100 0 0 181 0 181 133 -4 c94 -2 139 -8
155 -18 39 -25 60 -79 72 -191 18 -163 6 -149 120 -149 l98 0 -14 47 c-8 25
-14 67 -14 92 0 74 -20 172 -42 212 -11 21 -36 45 -54 55 -33 18 -44 34 -24
34 19 0 82 64 102 103 32 64 29 169 -7 235 -15 28 -45 63 -66 78 -73 50 -94
53 -386 54 l-273 0 0 -455z m483 291 c45 -19 68 -48 74 -94 8 -56 -13 -110
-51 -133 -27 -16 -51 -19 -168 -19 l-138 0 0 130 0 130 125 0 c84 0 136 -5
158 -14z"/>
<path d="M5610 3605 l0 -455 345 0 345 0 0 85 0 85 -245 0 -245 0 0 110 0 110
220 0 220 0 0 80 0 80 -220 0 -221 0 3 98 3 97 238 3 237 2 0 80 0 80 -340 0
-340 0 0 -455z"/>
<path d="M6440 3605 l0 -455 100 0 100 0 0 148 0 148 58 57 58 57 138 -205
138 -205 218 0 218 0 35 98 35 97 174 3 174 2 32 -100 33 -100 105 0 104 0
-19 48 c-10 26 -87 230 -171 455 l-153 407 -101 0 -102 0 -169 -445 c-93 -245
-171 -445 -174 -445 -3 0 -91 120 -194 267 l-189 266 179 179 178 178 -125 0
-125 -1 -175 -186 -175 -186 -3 186 -2 187 -100 0 -100 0 0 -455z m1334 66
c31 -90 54 -166 52 -168 -2 -2 -55 -2 -118 -1 l-116 3 60 168 c34 92 62 166
64 165 1 -2 28 -77 58 -167z"/>
</g>
</svg>
